<svg width="450" height="601" viewBox="0 0 450 601" fill="none" xmlns="http://www.w3.org/2000/svg">
<path opacity="0.1" d="M411.764 360.524L411.764 360.524C366.497 448.985 304.056 524.381 234.626 594.497L234.625 594.497C231.539 597.625 228.678 599.544 225.802 599.877C222.962 600.205 219.966 598.997 216.566 595.518L216.566 595.517C135.067 512.414 61.1055 424.131 17.9847 314.126L17.9832 314.123C6.48487 285.442 0.551414 254.833 0.500002 223.931C1.20436 95.938 107.906 -4.95324 236.578 0.728737C361.198 6.22769 458.502 116.656 448.838 241.941L449.336 241.98L448.838 241.941C445.581 284.218 430.886 323.202 411.764 360.524Z" stroke="black"/>
</svg>
