<svg width="24" height="24" viewBox="0 0 24 24" fill="none" xmlns="http://www.w3.org/2000/svg">
<path d="M11.9992 23C10.4558 21.6835 9.02513 20.2402 7.72226 18.6852C5.76708 16.35 3.44531 12.8722 3.44531 9.55818C3.44447 7.86568 3.94573 6.21097 4.88566 4.80347C5.82559 3.39596 7.16194 2.29893 8.72559 1.6512C10.2892 1.00348 12.0099 0.834177 13.6698 1.16473C15.3297 1.49527 16.8542 2.31081 18.0505 3.50813C18.8469 4.30103 19.4782 5.24401 19.9077 6.28249C20.3373 7.32098 20.5567 8.43435 20.5531 9.55818C20.5531 12.8722 18.2313 16.35 16.2761 18.6852C14.9733 20.2402 13.5426 21.6835 11.9992 23ZM11.9992 5.89222C11.0269 5.89222 10.0945 6.27846 9.40698 6.96596C8.71948 7.65346 8.33325 8.58591 8.33325 9.55818C8.33325 10.5304 8.71948 11.4629 9.40698 12.1504C10.0945 12.8379 11.0269 13.2241 11.9992 13.2241C12.9715 13.2241 13.9039 12.8379 14.5914 12.1504C15.2789 11.4629 15.6652 10.5304 15.6652 9.55818C15.6652 8.58591 15.2789 7.65346 14.5914 6.96596C13.9039 6.27846 12.9715 5.89222 11.9992 5.89222Z" fill="#FA8B02"/>
</svg>
