<svg width="27" height="16" viewBox="0 0 27 16" fill="none" xmlns="http://www.w3.org/2000/svg">
<path fill-rule="evenodd" clip-rule="evenodd" d="M13.4999 13.6221C12.07 14.7743 10.2152 15.4698 8.18845 15.4698C3.66609 15.4698 0 12.0068 0 7.73492C0 3.46304 3.66609 0 8.18845 0C10.2152 0 12.07 0.695562 13.4999 1.84777C14.9297 0.695562 16.7845 0 18.8113 0C23.3337 0 26.9997 3.46304 26.9997 7.73492C26.9997 12.0068 23.3337 15.4698 18.8113 15.4698C16.7845 15.4698 14.9297 14.7743 13.4999 13.6221Z" fill="#ED0006"/>
<path fill-rule="evenodd" clip-rule="evenodd" d="M13.4995 13.6221C15.2602 12.2034 16.3766 10.0923 16.3766 7.73492C16.3766 5.37753 15.2602 3.26644 13.4995 1.84772C14.9294 0.695542 16.7841 0 18.8109 0C23.3332 0 26.9993 3.46304 26.9993 7.73492C26.9993 12.0068 23.3332 15.4698 18.8109 15.4698C16.7841 15.4698 14.9294 14.7743 13.4995 13.6221Z" fill="#F9A000"/>
<path fill-rule="evenodd" clip-rule="evenodd" d="M13.4996 13.6227C15.2602 12.204 16.3766 10.0929 16.3766 7.73559C16.3766 5.37823 15.2602 3.26718 13.4996 1.84845C11.739 3.26718 10.6226 5.37823 10.6226 7.73559C10.6226 10.0929 11.739 12.204 13.4996 13.6227Z" fill="#FD6020"/>
</svg>
