<svg width="24" height="24" viewBox="0 0 24 24" fill="none" xmlns="http://www.w3.org/2000/svg">
<path d="M2.85742 7.42885H21.1431M5.14314 2.85742H18.8574C19.4636 2.85742 20.045 3.09824 20.4737 3.52689C20.9023 3.95555 21.1431 4.53693 21.1431 5.14314V18.8574C21.1431 19.4636 20.9023 20.045 20.4737 20.4737C20.045 20.9023 19.4636 21.1431 18.8574 21.1431H5.14314C4.53693 21.1431 3.95555 20.9023 3.52689 20.4737C3.09824 20.045 2.85742 19.4636 2.85742 18.8574V5.14314C2.85742 4.53693 3.09824 3.95555 3.52689 3.52689C3.95555 3.09824 4.53693 2.85742 5.14314 2.85742V2.85742Z" stroke="#FA8B02" stroke-linecap="round" stroke-linejoin="round"/>
<path d="M12.0003 13.1431C12.6315 13.1431 13.1431 12.6315 13.1431 12.0003C13.1431 11.3691 12.6315 10.8574 12.0003 10.8574C11.3691 10.8574 10.8574 11.3691 10.8574 12.0003C10.8574 12.6315 11.3691 13.1431 12.0003 13.1431Z" fill="#FA8B02"/>
<path d="M7.42801 13.1431C8.0592 13.1431 8.57087 12.6315 8.57087 12.0003C8.57087 11.3691 8.0592 10.8574 7.42801 10.8574C6.79683 10.8574 6.28516 11.3691 6.28516 12.0003C6.28516 12.6315 6.79683 13.1431 7.42801 13.1431Z" fill="#FA8B02"/>
<path d="M16.5706 13.1431C17.2018 13.1431 17.7134 12.6315 17.7134 12.0003C17.7134 11.3691 17.2018 10.8574 16.5706 10.8574C15.9394 10.8574 15.4277 11.3691 15.4277 12.0003C15.4277 12.6315 15.9394 13.1431 16.5706 13.1431Z" fill="#FA8B02"/>
<path d="M12.0003 17.7144C12.6315 17.7144 13.1431 17.2028 13.1431 16.5716C13.1431 15.9404 12.6315 15.4287 12.0003 15.4287C11.3691 15.4287 10.8574 15.9404 10.8574 16.5716C10.8574 17.2028 11.3691 17.7144 12.0003 17.7144Z" fill="#FA8B02"/>
<path d="M7.42801 17.7144C8.0592 17.7144 8.57087 17.2028 8.57087 16.5716C8.57087 15.9404 8.0592 15.4287 7.42801 15.4287C6.79683 15.4287 6.28516 15.9404 6.28516 16.5716C6.28516 17.2028 6.79683 17.7144 7.42801 17.7144Z" fill="#FA8B02"/>
<path d="M16.5706 17.7144C17.2018 17.7144 17.7134 17.2028 17.7134 16.5716C17.7134 15.9404 17.2018 15.4287 16.5706 15.4287C15.9394 15.4287 15.4277 15.9404 15.4277 16.5716C15.4277 17.2028 15.9394 17.7144 16.5706 17.7144Z" fill="#FA8B02"/>
</svg>
