<svg width="28" height="9" viewBox="0 0 28 9" fill="none" xmlns="http://www.w3.org/2000/svg">
<path fill-rule="evenodd" clip-rule="evenodd" d="M7.0003 8.72562H4.57707L2.75995 1.90336C2.6737 1.58954 2.49057 1.3121 2.22119 1.18134C1.54893 0.852736 0.808135 0.591216 0 0.459319V0.196662H3.90362C4.44238 0.196662 4.84645 0.591216 4.91379 1.04944L5.85662 5.97057L8.27866 0.196662H10.6345L7.0003 8.72562ZM11.9815 8.72562H9.69296L11.5774 0.196662H13.866L11.9815 8.72562ZM16.8267 2.55948C16.8941 2.10012 17.2981 1.83746 17.7696 1.83746C18.5103 1.77151 19.3173 1.90341 19.9907 2.23088L20.3948 0.394554C19.7214 0.131897 18.9806 0 18.3083 0C16.0871 0 14.4709 1.18139 14.4709 2.821C14.4709 4.06834 15.6157 4.72327 16.4238 5.11783C17.2981 5.51124 17.6349 5.7739 17.5675 6.16732C17.5675 6.75744 16.8941 7.0201 16.2218 7.0201C15.4137 7.0201 14.6055 6.82339 13.8659 6.49479L13.4619 8.33225C14.27 8.65971 15.1443 8.79161 15.9524 8.79161C18.443 8.85642 19.9907 7.67617 19.9907 5.90466C19.9907 3.67378 16.8267 3.54302 16.8267 2.55948ZM27.9999 8.72562L26.1828 0.196662H24.231C23.8269 0.196662 23.4228 0.459319 23.2882 0.852736L19.9233 8.72562H22.2792L22.7494 7.47942H25.644L25.9134 8.72562H27.9999ZM24.5678 2.49344L25.2401 5.70786H23.3556L24.5678 2.49344Z" fill="#28356A"/>
</svg>
