<svg width="26" height="16" viewBox="0 0 26 16" fill="none" xmlns="http://www.w3.org/2000/svg">
<path d="M15.7701 7.62556C15.7701 11.837 12.2399 15.2511 7.88507 15.2511C3.53027 15.2511 0 11.837 0 7.62556C0 3.41408 3.53027 0 7.88507 0C12.2399 0 15.7701 3.41408 15.7701 7.62556Z" fill="#ED0006"/>
<path d="M25.9995 7.62556C25.9995 11.837 22.4693 15.2511 18.1145 15.2511C13.7596 15.2511 10.2294 11.837 10.2294 7.62556C10.2294 3.41408 13.7596 0 18.1145 0C22.4693 0 25.9995 3.41408 25.9995 7.62556Z" fill="#2F80ED"/>
<path fill-rule="evenodd" clip-rule="evenodd" d="M12.9998 13.4285C11.3044 12.0298 10.2294 9.94864 10.2294 7.62463C10.2294 5.30061 11.3044 3.21942 12.9998 1.82075C14.6951 3.21942 15.7701 5.30061 15.7701 7.62463C15.7701 9.94864 14.6951 12.0298 12.9998 13.4285Z" fill="#6C6BBD"/>
</svg>
