<svg width="36" height="16" viewBox="0 0 36 16" fill="none" xmlns="http://www.w3.org/2000/svg">
<path d="M16.5984 16L35.7456 10.2054V12.9767C35.7456 14.6464 34.3921 16 32.7224 16H16.5984Z" fill="#FD6020"/>
<path fill-rule="evenodd" clip-rule="evenodd" d="M31.292 0.125691C32.5313 0.125691 33.2129 0.673743 33.2129 1.70895C33.2749 2.50058 32.7172 3.17043 31.9736 3.29222L33.6467 5.54532H32.3454L30.9202 3.35311H30.7963V5.54532H29.7429V0.125691H31.292ZM30.7963 2.62234H31.1061C31.7878 2.62234 32.0976 2.31787 32.0976 1.76982C32.0976 1.28266 31.7878 0.978186 31.1061 0.978186H30.7963V2.62234ZM26.0871 5.54532H29.0614V4.6319H27.1405V3.17043H28.9994V2.25701H27.1405V1.03911H29.0614V0.125691H26.0871V5.54532ZM22.9888 3.77937L21.5636 0.125691H20.4482L22.7409 5.66711H23.2986L25.5913 0.125691H24.4759L22.9888 3.77937ZM10.4099 2.86584C10.4099 4.38821 11.6492 5.66699 13.1983 5.66699C13.6941 5.66699 14.1278 5.54521 14.5616 5.36252V4.14463C14.2517 4.51 13.818 4.75357 13.3223 4.75357C12.3308 4.75357 11.5253 4.02284 11.5253 3.04852V2.92673C11.4633 1.95242 12.2689 1.09989 13.2603 1.039C13.756 1.039 14.2517 1.28257 14.5616 1.64794V0.430049C14.1898 0.18647 13.6941 0.125575 13.2603 0.125575C11.6492 0.00378551 10.4099 1.28257 10.4099 2.86584ZM8.4891 2.19606C7.86945 1.95248 7.68356 1.83069 7.68356 1.52621C7.74552 1.16085 8.05535 0.856372 8.42713 0.917267C8.73696 0.917267 9.04678 1.09995 9.29464 1.34353L9.85232 0.612794C9.41856 0.247425 8.86088 0.00384652 8.3032 0.00384652C7.4357 -0.0570482 6.69213 0.612794 6.63017 1.46532V1.52621C6.63017 2.25695 6.93999 2.68321 7.93142 2.98769C8.17928 3.04858 8.42713 3.17037 8.67499 3.29216C8.86088 3.41395 8.98481 3.59663 8.98481 3.84021C8.98481 4.26648 8.61303 4.63184 8.24124 4.63184H8.17928C7.68356 4.63184 7.24981 4.32737 7.06392 3.90111L6.38231 4.57095C6.75409 5.24079 7.49767 5.60616 8.24124 5.60616C9.23267 5.66705 10.0382 4.93632 10.1002 3.962V3.77932C10.0382 3.04858 9.72839 2.68321 8.4891 2.19606ZM4.89517 5.54532H5.94856V0.125691H4.89517V5.54532ZM0 0.125704H1.54911H1.85893C3.34608 0.186599 4.5234 1.40449 4.46144 2.86597C4.46144 3.6576 4.08965 4.38833 3.47001 4.93639C2.91233 5.36265 2.23072 5.60623 1.54911 5.54533H0V0.125704ZM1.36326 4.63195C1.85897 4.69284 2.41665 4.51016 2.78844 4.20568C3.16022 3.84032 3.34612 3.35316 3.34612 2.80511C3.34612 2.31795 3.16022 1.83079 2.78844 1.46542C2.41665 1.16095 1.85897 0.978264 1.36326 1.03916H1.05343V4.63195H1.36326Z" fill="#333333"/>
<path fill-rule="evenodd" clip-rule="evenodd" d="M17.7216 0C16.1725 0 14.8712 1.21789 14.8712 2.80116C14.8712 4.32352 16.1105 5.60231 17.7216 5.66321C19.3326 5.7241 20.5719 4.44531 20.6339 2.86205C20.5719 1.27879 19.3326 0 17.7216 0V0Z" fill="#FD6020"/>
</svg>
