<svg width="44" height="44" viewBox="0 0 44 44" fill="none" xmlns="http://www.w3.org/2000/svg">
<path fill-rule="evenodd" clip-rule="evenodd" d="M0 22C0 9.85089 9.85089 0 22 0C34.1491 0 44 9.85089 44 22C44 34.1491 34.1491 44 22 44C9.85089 44 0 34.1491 0 22ZM22 10.9371C18.9949 10.9371 18.6188 10.9492 17.4391 11.0035H17.4381C16.2614 11.0578 15.4568 11.2449 14.7528 11.5174C14.0151 11.7955 13.3469 12.231 12.7947 12.7937C12.2316 13.3461 11.7957 14.0147 11.5174 14.7528C11.2449 15.4568 11.0568 16.2614 11.0035 17.4401C10.9502 18.6188 10.9371 18.9949 10.9371 22C10.9371 25.0041 10.9492 25.3802 11.0035 26.5619C11.0578 27.7386 11.2449 28.5432 11.5174 29.2472C11.7953 29.9853 12.2309 30.6538 12.7937 31.2063C13.3467 31.7688 14.0156 32.2039 14.7538 32.4816C15.4578 32.7551 16.2624 32.9432 17.4391 32.9965C18.6188 33.0498 18.9949 33.0629 22 33.0629C25.0051 33.0629 25.3812 33.0508 26.5619 32.9965C27.7386 32.9422 28.5432 32.7551 29.2472 32.4816C29.9844 32.204 30.6532 31.7695 31.2063 31.2063C31.7688 30.6534 32.204 29.9845 32.4816 29.2462C32.7551 28.5422 32.9432 27.7376 32.9965 26.5609C33.0498 25.3812 33.0629 25.0051 33.0629 22C33.0629 18.9959 33.0508 18.6198 32.9965 17.4381C32.9422 16.2614 32.7551 15.4568 32.4816 14.7528C32.204 14.0146 31.7695 13.3468 31.2063 12.7947C30.6532 12.2315 29.9844 11.796 29.2472 11.5174C28.5432 11.2449 27.7386 11.0568 26.5599 11.0035C25.3812 10.9502 25.0051 10.9371 22 10.9371ZM22 12.9305C24.9538 12.9305 25.3038 12.9415 26.4704 12.9948C27.5495 13.0441 28.1349 13.2241 28.5251 13.376C29.0055 13.5532 29.4402 13.8357 29.7973 14.2027C30.1845 14.5899 30.4229 14.959 30.624 15.4749C30.7759 15.8651 30.9559 16.4505 31.0052 17.5296C31.0585 18.6962 31.0695 19.0462 31.0695 22C31.0695 24.9538 31.0585 25.3038 31.0052 26.4704C30.9559 27.5495 30.7759 28.1349 30.624 28.5251C30.447 29.0048 30.1644 29.4403 29.7973 29.7973C29.4101 30.1845 29.041 30.4229 28.5251 30.624C28.1349 30.7759 27.5495 30.9559 26.4704 31.0052C25.3038 31.0585 24.9548 31.0695 22 31.0695C19.0452 31.0695 18.6962 31.0585 17.5296 31.0052C16.4505 30.9559 15.8651 30.7759 15.4749 30.624C14.9952 30.447 14.5597 30.1644 14.2027 29.7973C13.8356 29.4403 13.553 29.0048 13.376 28.5251C13.2241 28.1349 13.0441 27.5495 12.9948 26.4704C12.9415 25.3038 12.9305 24.9538 12.9305 22C12.9305 19.0462 12.9415 18.6962 12.9948 17.5296C13.0441 16.4505 13.2241 15.8651 13.376 15.4749C13.5532 14.9945 13.8357 14.5598 14.2027 14.2027C14.5899 13.8155 14.959 13.5771 15.4749 13.376C15.8651 13.2241 16.4505 13.0441 17.5296 12.9948C18.6962 12.9415 19.0462 12.9305 22 12.9305ZM23.073 25.5358C22.2548 25.7832 21.3761 25.7389 20.587 25.4104C20.0829 25.2014 19.6315 24.8832 19.2652 24.4788C18.8989 24.0744 18.6268 23.5938 18.4685 23.0716C18.3102 22.5494 18.2696 21.9986 18.3498 21.4589C18.4299 20.9191 18.6287 20.4039 18.9319 19.9502C19.235 19.4965 19.635 19.1157 20.103 18.8351C20.571 18.5546 21.0954 18.3813 21.6384 18.3278C22.1815 18.2742 22.7296 18.3417 23.2434 18.5254C23.7572 18.7091 24.2239 19.0045 24.6098 19.3902C25.2153 19.9936 25.5925 20.7885 25.6769 21.6391C25.7614 22.4897 25.548 23.3432 25.0731 24.0539C24.5982 24.7646 23.8912 25.2884 23.073 25.5358ZM19.8239 16.7465C19.134 17.0323 18.5072 17.4511 17.9792 17.9792C16.9128 19.0455 16.3137 20.4919 16.3137 22C16.3137 23.5081 16.9128 24.9545 17.9792 26.0208C19.0455 27.0872 20.4919 27.6863 22 27.6863C23.5081 27.6863 24.9545 27.0872 26.0208 26.0208C26.5489 25.4928 26.9677 24.866 27.2535 24.1761C27.5393 23.4862 27.6863 22.7467 27.6863 22C27.6863 21.2533 27.5393 20.5138 27.2535 19.8239C26.9677 19.134 26.5489 18.5072 26.0208 17.9792C25.4928 17.4511 24.866 17.0323 24.1761 16.7465C23.4862 16.4607 22.7467 16.3137 22 16.3137C21.2533 16.3137 20.5138 16.4607 19.8239 16.7465ZM29.2555 16.724C29.1831 16.8886 29.0783 17.0371 28.9475 17.1605C28.693 17.4006 28.355 17.532 28.0052 17.5269C27.6554 17.5218 27.3214 17.3806 27.074 17.1332C26.8266 16.8858 26.6854 16.5518 26.6803 16.202C26.6752 15.8522 26.8066 15.5142 27.0467 15.2597C27.1701 15.1289 27.3185 15.0241 27.4832 14.9516C27.6478 14.8792 27.8253 14.8405 28.0052 14.8379C28.1851 14.8353 28.3636 14.8688 28.5303 14.9364C28.697 15.004 28.8484 15.1044 28.9756 15.2316C29.1028 15.3588 29.2032 15.5102 29.2708 15.6769C29.3384 15.8436 29.3719 16.0221 29.3693 16.202C29.3667 16.3818 29.328 16.5594 29.2555 16.724Z" fill="#FA8B02"/>
</svg>
