<svg width="14" height="15" viewBox="0 0 14 15" fill="none" xmlns="http://www.w3.org/2000/svg">
<path fill-rule="evenodd" clip-rule="evenodd" d="M3.88326 14.4905L4.16277 12.8394L3.54013 12.8259H0.566878L2.63318 0.641748C2.63962 0.604853 2.66043 0.570603 2.69082 0.546238C2.72136 0.521874 2.76028 0.508508 2.80101 0.508508H7.81436C9.47884 0.508508 10.6274 0.830539 11.227 1.46625C11.5082 1.76447 11.6872 2.0762 11.7739 2.41911C11.8648 2.77901 11.8663 3.20894 11.7776 3.73341L11.7712 3.77156V4.10765L12.0524 4.25579C12.289 4.3726 12.4772 4.50626 12.6216 4.65927C12.862 4.91433 13.0175 5.23845 13.0833 5.62257C13.1512 6.0177 13.1288 6.488 13.0175 7.02041C12.8892 7.63272 12.6819 8.1661 12.4018 8.60244C12.1443 9.00452 11.8161 9.33811 11.4264 9.59651C11.0544 9.84211 10.6124 10.0285 10.1127 10.1479C9.6284 10.2651 9.07626 10.3242 8.47069 10.3242H8.08054C7.80163 10.3242 7.53065 10.4177 7.31792 10.5852C7.10458 10.7561 6.96355 10.9898 6.92029 11.2452L6.89079 11.3939L6.3969 14.3042L6.37459 14.411C6.3686 14.4448 6.35842 14.4616 6.34345 14.4731C6.33013 14.4835 6.31096 14.4905 6.29225 14.4905H3.88326Z" fill="#28356A"/>
<path fill-rule="evenodd" clip-rule="evenodd" d="M12.3193 3.81084C12.3045 3.89981 12.2873 3.99072 12.2681 4.08414C11.607 7.24096 9.34503 8.33152 6.45622 8.33152H4.98531C4.63199 8.33152 4.33422 8.57002 4.27928 8.89413L3.3129 14.5948C3.27712 14.8076 3.45347 14.9993 3.68433 14.9993H6.29318C6.60203 14.9993 6.86448 14.7906 6.91313 14.5073L6.93873 14.3841L7.42993 11.4853L7.46152 11.3263C7.50958 11.042 7.77262 10.8331 8.08147 10.8331H8.47162C10.9992 10.8331 12.9779 9.87888 13.5562 7.11719C13.7977 5.96356 13.6727 5.00025 13.0334 4.32278C12.84 4.11853 12.6 3.94896 12.3193 3.81084Z" fill="#2F80ED"/>
<path fill-rule="evenodd" clip-rule="evenodd" d="M11.6273 3.55467C11.5263 3.52724 11.4221 3.50246 11.3152 3.48004C11.2077 3.45818 11.0976 3.43883 10.9843 3.42184C10.5877 3.36226 10.1531 3.33399 9.68767 3.33399H5.75823C5.66136 3.33399 5.56944 3.35432 5.48725 3.39108C5.30595 3.47211 5.17136 3.63166 5.13872 3.82699L4.30274 8.75087L4.27879 8.89441C4.33373 8.5703 4.63151 8.3318 4.98482 8.3318H6.45573C9.34454 8.3318 11.6065 7.24068 12.2676 4.08442C12.2874 3.991 12.304 3.90009 12.3188 3.81112C12.1516 3.72856 11.9705 3.65797 11.7754 3.59783C11.7272 3.58293 11.6775 3.56859 11.6273 3.55467Z" fill="#28356A"/>
<path fill-rule="evenodd" clip-rule="evenodd" d="M5.13846 3.82678C5.1711 3.63144 5.30569 3.47189 5.48699 3.39141C5.56978 3.35452 5.6611 3.33419 5.75796 3.33419H9.68741C10.1529 3.33419 10.5875 3.36259 10.984 3.42218C11.0974 3.43903 11.2074 3.45852 11.3149 3.48038C11.4218 3.50266 11.526 3.52758 11.6271 3.55487C11.6772 3.56879 11.7269 3.58327 11.7756 3.59761C11.9706 3.65775 12.1519 3.7289 12.3192 3.8109C12.5159 2.64433 12.3175 1.85004 11.6393 1.1308C10.8915 0.338877 9.54204 0 7.81513 0H2.80163C2.44892 0 2.148 0.238495 2.0935 0.563171L0.00534409 12.8726C-0.0358262 13.1161 0.166133 13.3358 0.430222 13.3358H3.52533L5.13846 3.82678Z" fill="#28356A"/>
</svg>
